<svg height="512" viewBox="0 0 512 512" width="512" xmlns="http://www.w3.org/2000/svg"><g id="filled_outline" data-name="filled outline"><path d="m440 248-11.257 8-66.675-.657-10.068-7.343v-48l-9.848-4 1.848-147 136 1v6z" fill="#fbb540"/><path d="m176 384h-32a48 48 0 0 1 -48-48 48 48 0 0 1 48-48h32v32h-32a16 16 0 0 0 -16 16 16 16 0 0 0 16 16h32z" fill="#e4e4e2"/><path d="m200 232h112v40h-112z" fill="#e4e4e2"/><path d="m352 302v90a32 32 0 0 1 -32 32h-128a32 32 0 0 1 -32-32v-90a38 38 0 0 1 38-38h116a38 38 0 0 1 38 38z" fill="#ebebeb"/><path d="m352 337.07v54.93a32 32 0 0 1 -32 32h-128a32 32 0 0 1 -32-32v-54.93l24.93 8.31a58.7 58.7 0 0 0 44.82-3.18 58.67 58.67 0 0 1 52.5 0 58.643 58.643 0 0 0 44.82 3.18z" fill="#744630"/><path d="m352 248v176l9.165 1 99.526 1.102 11.309-2.102-32-176z" fill="#ea9d2d"/><circle cx="400" cy="312" fill="#85bc94" r="16"/><circle cx="400" cy="376" fill="#f27e55" r="16"/><path d="m352 392a32 32 0 0 1 -32 32h-128a32 32 0 0 1 -32-32z" fill="#787d82"/><path d="m352 200h-72a43.266 43.266 0 0 1 -48 0h-32l-24-144-.353-6h176.353z" fill="#fbd699"/><path d="m168 24h320v32h-320z" fill="#ea9d2d"/><path d="m384 88h32v128h-32z" fill="#ebebeb"/><path d="m384 112h32v16h-32z" fill="#c3c3c3"/><path d="m384 144h32v16h-32z" fill="#c3c3c3"/><path d="m384 160h32v56h-32z" fill="#aedee2"/><path d="m384 176h32v16h-32z" fill="#c3c3c3"/><path d="m174 424h298a0 0 0 0 1 0 0v64a0 0 0 0 1 0 0h-336a0 0 0 0 1 0 0v-26a38 38 0 0 1 38-38z" fill="#d18d28"/><g fill="#744630"><path d="m255.958 290-9.115 13.674a10.955 10.955 0 0 0 4.216 15.876 10.957 10.957 0 0 0 9.8 0 10.955 10.955 0 0 0 4.216-15.876z"/><path d="m293.042 268.76-9.116 13.674a10.956 10.956 0 0 0 4.216 15.877 10.957 10.957 0 0 0 9.8 0 10.956 10.956 0 0 0 4.216-15.877z"/><path d="m216.706 280.647-9.116 13.673a10.956 10.956 0 0 0 4.216 15.877 10.957 10.957 0 0 0 9.8 0 10.956 10.956 0 0 0 4.217-15.877z"/></g><path d="m400 288a24 24 0 1 0 24 24 24.027 24.027 0 0 0 -24-24zm0 32a8 8 0 1 1 8-8 8.009 8.009 0 0 1 -8 8z"/><path d="m400 352a24 24 0 1 0 24 24 24.027 24.027 0 0 0 -24-24zm0 32a8 8 0 1 1 8-8 8.009 8.009 0 0 1 -8 8z"/><path d="m488 16h-320a8 8 0 0 0 -8 8v32a8 8 0 0 0 8 8h1.223l22.886 137.315a8 8 0 0 0 7.891 6.685h29.687a51.109 51.109 0 0 0 52.626 0h61.687v59.173a45.814 45.814 0 0 0 -24-10.773v-24.4a8 8 0 0 0 -8-8h-112a8 8 0 0 0 -8 8v24.4a46.1 46.1 0 0 0 -34.387 23.6h-13.613a56 56 0 0 0 0 112h8a39.814 39.814 0 0 0 9.432 25.76 46.072 46.072 0 0 0 -33.432 44.24v26a8 8 0 0 0 8 8h336a8 8 0 0 0 8-8v-64c0-.1-.012-.2-.015-.305 0-.123-.009-.245-.019-.368-.015-.183-.04-.362-.068-.541-.011-.072-.014-.145-.027-.217l-31.721-174.469 38.355-184.1h1.495a8 8 0 0 0 8-8v-32a8 8 0 0 0 -8-8zm-336 328h-8a8 8 0 0 1 0-16h8zm0-32h-8a24 24 0 0 0 0 48h8v16h-8a40 40 0 0 1 0-80h8zm128-120a8 8 0 0 0 -4.438 1.344 35.176 35.176 0 0 1 -39.125 0 8 8 0 0 0 -4.437-1.344h-25.223l-21.333-128h158.556v128zm-72 48h96v16h-96zm-40 62a30.034 30.034 0 0 1 30-30h92.882l-6.956 10.434a10.956 10.956 0 1 0 18.231 0l-6.957-10.434h18.8a30.034 30.034 0 0 1 30 30v29.305l-19.463 6.488a50.369 50.369 0 0 1 -38.707-2.751 67.016 67.016 0 0 0 -59.66 0 50.374 50.374 0 0 1 -38.707 2.75l-19.463-6.487zm0 46.171 14.4 4.8a66.27 66.27 0 0 0 50.923-3.619 50.942 50.942 0 0 1 45.348 0 66.277 66.277 0 0 0 50.923 3.619l14.4-4.8v35.829h-175.994zm174.624 51.829a24.039 24.039 0 0 1 -22.624 16h-128a24.039 24.039 0 0 1 -22.624-16zm121.376 80h-320v-18a30.034 30.034 0 0 1 30-30h290zm-1.586-64h-102.414v-160h73.323zm-28.914-176h-73.5v-176h110.162zm46.5-192h-304v-16h304z"/><path d="m384 224h32a8 8 0 0 0 8-8v-128a8 8 0 0 0 -8-8h-32a8 8 0 0 0 -8 8v128a8 8 0 0 0 8 8zm8-128h16v16h-16zm0 32h16v16h-16zm0 32h16v16h-16zm0 32h16v16h-16z"/><path d="m251.059 319.55a10.956 10.956 0 0 0 14.015-15.876l-9.116-13.674-9.115 13.674a10.955 10.955 0 0 0 4.216 15.876z"/><path d="m211.806 310.2a10.956 10.956 0 0 0 14.016-15.877l-9.116-13.674-9.116 13.671a10.956 10.956 0 0 0 4.216 15.88z"/></g></svg>