<svg height="452pt" viewBox="0 0 452.45229 452" width="452pt" xmlns="http://www.w3.org/2000/svg"><path d="m64.820312 22.578125c-1.949218 23.125-26.050781 26.777344-26.050781 26.777344 20.695313.972656 25.851563 28.117187 25.851563 28.117187.441406-19.351562 26.644531-28.402344 26.644531-28.402344-19.628906-1.175781-26.445313-26.492187-26.445313-26.492187zm0 0" fill="#d7e057"/><path d="m91.441406 46.074219c-17.210937-1.027344-23.664062-24.046875-23.726562-24.28125-.378906-1.402344-1.695313-2.3125-3.167969-2.203125-1.449219.132812-2.597656 1.285156-2.71875 2.734375-1.71875 20.429687-22.625 23.925781-23.507813 24.0625-1.527343.230469-2.625 1.582031-2.546874 3.121093.082031 1.542969 1.316406 2.769532 2.855468 2.84375 18.058594.847657 23 25.4375 23.046875 25.6875.273438 1.421876 1.519531 2.433594 2.945313 2.433594.082031 0 .167968-.003906.25-.011718 1.527344-.128907 2.714844-1.386719 2.75-2.917969.390625-17.019531 24.382812-25.554688 24.625-25.640625 1.351562-.46875 2.183594-1.828125 1.988281-3.242188-.195313-1.417968-1.363281-2.5-2.792969-2.585937zm-27.132812 20.691406c-2.710938-6.261719-7.414063-13.8125-15.171875-17.753906 5.863281-2.804688 12.816406-7.824219 16.402343-16.542969 3.101563 6.140625 8.402344 13.761719 16.667969 17.445312-6.011719 3.277344-13.84375 8.8125-17.898437 16.851563zm0 0" fill="#3a312a"/><path d="m21.421875 56.539062c-1.378906 16.359376-18.421875 18.941407-18.421875 18.941407 14.632812.6875 18.28125 19.886719 18.28125 19.886719.3125-13.6875 18.84375-20.089844 18.84375-20.089844-13.878906-.832032-18.703125-18.738282-18.703125-18.738282zm0 0" fill="#d7e057"/><path d="m40.304688 72.28125c-11.53125-.6875-15.945313-16.371094-15.988282-16.527344-.378906-1.40625-1.71875-2.3125-3.164062-2.203125-1.449219.128907-2.597656 1.285157-2.71875 2.734375-1.15625 13.738282-15.292969 16.132813-15.882813 16.226563-1.527343.230469-2.628906 1.582031-2.54687475 3.121093.08203125 1.542969 1.31249975 2.769532 2.85546875 2.84375 12.070313.566407 15.445313 17.289063 15.480469 17.453126.269531 1.425781 1.515625 2.4375 2.941406 2.4375.085938 0 .167969-.003907.25-.007813 1.53125-.125 2.71875-1.386719 2.753906-2.921875.257813-11.417969 16.664063-17.269531 16.824219-17.324219 1.351563-.46875 2.1875-1.824219 1.992187-3.246093-.199218-1.417969-1.367187-2.5-2.796874-2.585938zm-19.167969 13.59375c-1.847657-3.773438-4.679688-7.894531-8.894531-10.5625 3.710937-2.082031 7.394531-5.257812 9.742187-9.832031 2.113281 3.75 5.308594 7.910156 9.882813 10.449219-3.699219 2.199218-7.980469 5.476562-10.730469 9.945312zm0 0" fill="#3a312a"/><path d="m21.421875 3.222656c-1.378906 16.359375-18.421875 18.941406-18.421875 18.941406 14.632812.6875 18.28125 19.890626 18.28125 19.890626.3125-13.691407 18.84375-20.089844 18.84375-20.089844-13.878906-.832032-18.703125-18.742188-18.703125-18.742188zm0 0" fill="#d7e057"/><path d="m40.304688 18.96875c-11.53125-.691406-15.941407-16.371094-15.988282-16.53125-.378906-1.402344-1.71875-2.3125-3.164062-2.203125-1.449219.128906-2.597656 1.285156-2.71875 2.738281-1.15625 13.738282-15.292969 16.128906-15.882813 16.222656-1.527343.230469-2.6249998 1.582032-2.54687475 3.121094.08203125 1.542969 1.31249975 2.769532 2.85546875 2.84375 12.070313.566406 15.445313 17.289063 15.476563 17.453125.269531 1.425781 1.519531 2.441407 2.945312 2.441407.082031 0 .164062-.003907.25-.011719 1.527344-.125 2.714844-1.386719 2.75-2.921875.261719-11.414063 16.664062-17.265625 16.824219-17.320313 1.351562-.46875 2.1875-1.828125 1.992187-3.246093-.195312-1.417969-1.363281-2.5-2.792968-2.585938zm-19.167969 13.589844c-1.847657-3.769532-4.679688-7.894532-8.894531-10.558594 3.710937-2.082031 7.394531-5.261719 9.742187-9.832031 2.113281 3.746093 5.308594 7.90625 9.882813 10.445312-3.699219 2.199219-7.980469 5.480469-10.730469 9.945313zm0 0" fill="#3a312a"/><path d="m107.570312 46.199219h341.878907v360.039062h-341.878907zm0 0" fill="#f16c7a"/><path d="m449.449219 43.199219h-341.878907c-1.65625 0-3 1.347656-3 3v266.15625c0 1.65625 1.34375 3 3 3s3-1.34375 3-3v-263.15625h335.878907v354.042969h-335.878907v-61.824219c0-1.65625-1.34375-3-3-3s-3 1.34375-3 3v64.824219c0 1.65625 1.34375 3 3 3h341.878907c1.65625 0 3-1.34375 3-3v-360.042969c0-1.652344-1.34375-3-3-3zm0 0" fill="#3a312a"/><path d="m107.570312 182.597656h341.878907v87.246094h-341.878907zm0 0" fill="#fce8cb"/><path d="m449.449219 179.597656h-202.429688c-1.65625 0-3 1.34375-3 3s1.34375 3 3 3h199.429688v81.246094h-335.878907v-81.246094h108.886719c1.660157 0 3-1.34375 3-3s-1.339843-3-3-3h-111.886719c-1.65625 0-3 1.34375-3 3v87.246094c0 1.65625 1.34375 3 3 3h341.878907c1.65625 0 3-1.34375 3-3v-87.246094c0-1.65625-1.34375-3-3-3zm0 0" fill="#3a312a"/><path d="m431.289062 7.832031c-10.101562-5.933593-23.089843-5.878906-33.136718.136719l-.960938.578125c-10.128906 6.0625-23.234375 6.0625-33.363281 0l-.800781-.480469c-10.128906-6.066406-23.234375-6.066406-33.363282 0l-.613281.367188c-10.222656 6.125-23.46875 6.0625-33.625-.160156-10.097656-6.183594-23.269531-6.28125-33.480469-.246094l-1.230468.726562c-10.0625 5.953125-23.015625 5.949219-33.078125-.003906l-1.496094-.886719c-10.058594-5.957031-23.015625-5.957031-33.078125-.007812l-1.289062.761719c-10.179688 6.023437-23.304688 5.945312-33.398438-.195313l-.277344-.167969c-10.148437-6.171875-23.351562-6.214844-33.546875-.109375l-16.984375 10.171875v27.882813h341.878906v-27.703125zm0 0" fill="#d7e057"/><path d="m450.96875 15.910156-18.160156-10.664062c-11.023438-6.476563-25.226563-6.417969-36.195313.148437v.003907l-.960937.574218c-9.199219 5.511719-21.085938 5.507813-30.28125 0l-.796875-.480468c-11.070313-6.628907-25.378907-6.625-36.449219 0l-.613281.367187c-9.300781 5.570313-21.28125 5.515625-30.519531-.140625-11.046876-6.773438-25.402344-6.878906-36.570313-.273438l-1.230469.726563c-9.125 5.394531-20.90625 5.390625-30.027344-.003906l-1.496093-.886719c-10.972657-6.492188-25.15625-6.5-36.132813-.003906l-1.289062.761718c-9.246094 5.46875-21.144532 5.398438-30.320313-.183593l-.269531-.164063c-11.105469-6.753906-25.492188-6.800781-36.644531-.121094l-16.984375 10.171876c-.90625.542968-1.460938 1.519531-1.460938 2.574218v27.886719c0 1.65625 1.34375 3 3 3h341.882813c1.65625 0 3-1.34375 3-3v-27.707031c0-1.0625-.5625-2.046875-1.480469-2.585938zm-4.519531 27.292969h-335.878907v-23.1875l15.523438-9.292969c9.269531-5.554687 21.21875-5.515625 30.453125.101563l.269531.164062c11.035156 6.710938 25.355469 6.800781 36.484375.214844l1.289063-.761719c9.121094-5.390625 20.90625-5.390625 30.023437.003906l1.496094.886719c10.976563 6.492188 25.160156 6.496094 36.132813.007813l1.230468-.730469c9.28125-5.484375 21.210938-5.398437 30.386719.222656 11.117187 6.808594 25.539063 6.878907 36.730469.175781l.613281-.367187c9.199219-5.511719 21.085937-5.507813 30.28125 0l.800781.476563c11.070313 6.628906 25.375 6.632812 36.449219 0l.960937-.574219c9.109376-5.457031 20.914063-5.503907 30.074219-.125l16.679688 9.792969zm0 0" fill="#3a312a"/><path d="m107.570312 406.179688v27.882812l16.984376 10.171875c10.195312 6.105469 23.398437 6.0625 33.546874-.109375l.277344-.167969c10.09375-6.140625 23.21875-6.214843 33.398438-.199219l1.289062.761719c10.0625 5.953125 23.019532 5.953125 33.078125-.003906l1.496094-.886719c10.058594-5.953125 23.015625-5.957031 33.078125-.003906l1.230469.726562c10.210937 6.039063 23.378906 5.941407 33.480469-.246093 10.15625-6.21875 23.402343-6.28125 33.625-.160157l.613281.367188c10.125 6.066406 23.234375 6.066406 33.363281 0l.800781-.476562c10.125-6.066407 23.234375-6.066407 33.363281 0l.964844.574218c10.042969 6.015625 23.027344 6.070313 33.132813.136719l18.160156-10.660156v-27.707031zm0 0" fill="#d7e057"/><g fill="#3a312a"><path d="m449.449219 403.179688h-341.878907c-1.65625 0-3 1.34375-3 3v27.882812c0 1.050781.554688 2.03125 1.457032 2.574219l16.984375 10.171875c11.15625 6.679687 25.542969 6.632812 36.636719-.117188l.289062-.175781c9.167969-5.574219 21.0625-5.640625 30.3125-.175781l1.285156.761718c5.488282 3.246094 11.773438 4.867188 18.0625 4.867188 6.289063 0 12.582032-1.625 18.070313-4.875l1.5-.882812c9.117187-5.394532 20.90625-5.398438 30.027343-.003907l1.226563.722657c11.171875 6.609374 25.527344 6.5 36.574219-.269532 9.238281-5.65625 21.214844-5.710937 30.519531-.140625l.609375.367188c11.074219 6.628906 25.378906 6.628906 36.453125-.003907l.792969-.476562c9.199218-5.511719 21.085937-5.507812 30.28125 0l.964844.578125c10.960937 6.5625 25.164062 6.625 36.195312.148437l18.160156-10.660156c.914063-.542968 1.480469-1.527344 1.480469-2.589844v-27.707031c-.003906-1.652343-1.347656-2.996093-3.003906-2.996093zm-3 28.988281-16.679688 9.792969c-9.160156 5.375-20.960937 5.332031-30.070312-.125l-.964844-.578126c-11.066406-6.628906-25.375-6.628906-36.453125 0l-.789062.476563c-9.203126 5.511719-21.089844 5.511719-30.289063 0l-.609375-.367187c-11.191406-6.703126-25.613281-6.632813-36.734375.175781-9.179687 5.625-21.101563 5.710937-30.386719.21875l-1.226562-.722657c-10.972656-6.492187-25.15625-6.488281-36.132813.007813l-1.5.882813c-9.117187 5.394531-20.902343 5.398437-30.023437.003906l-1.289063-.761719c-5.5-3.253906-11.785156-4.875-18.066406-4.875-6.417969 0-12.835937 1.699219-18.40625 5.089844l-.289063.171875c-9.226562 5.613281-21.175781 5.652344-30.445312.097656l-15.527344-9.296875v-23.183594h335.882813zm0 0"/><path d="m177.378906 221.53125c-6.472656-2.453125-9.300781-3.867188-9.300781-7.066406 0-2.605469 2.378906-4.835938 7.289063-4.835938 4.914062 0 8.484374 1.414063 10.492187 2.378906l2.527344-9.152343c-2.972657-1.335938-7.140625-2.527344-12.792969-2.527344-11.832031 0-18.972656 6.546875-18.972656 15.101563 0 7.292968 5.429687 11.902343 13.761718 14.808593 6.027344 2.15625 8.410157 3.941407 8.410157 7.066407 0 3.273437-2.753907 5.429687-7.960938 5.429687-4.835937 0-9.527343-1.5625-12.574219-3.125l-2.308593 9.378906c2.828125 1.5625 8.484375 3.046875 14.210937 3.046875 13.765625 0 20.238282-7.140625 20.238282-15.550781 0-7.066406-4.167969-11.675781-13.019532-14.953125zm0 0"/><path d="m231.386719 201.148438v28.867187c0 8.851563-3.273438 13.023437-9.226563 13.023437-5.804687 0-9.078125-4.390624-9.078125-13.023437v-28.867187h-11.382812v27.976562c0 15.992188 7.4375 22.988281 20.085937 22.988281 13.09375 0 20.910156-7.363281 20.910156-22.84375v-28.121093zm0 0"/><path d="m279.4375 222.574219v8.855469h7.742188v10.492187c-.894532.445313-2.980469.742187-5.582032.742187-9.300781 0-15.773437-6.101562-15.773437-16.441406 0-10.863281 7.140625-16.21875 16.59375-16.21875 5.503906 0 8.925781.964844 11.679687 2.15625l2.378906-9.078125c-2.457031-1.1875-7.441406-2.453125-13.914062-2.453125-16.441406 0-28.570312 9.523438-28.644531 26.1875-.074219 7.363282 2.457031 13.914063 7.066406 18.226563 4.613281 4.464843 11.234375 6.773437 20.386719 6.773437 6.621094 0 13.246094-1.640625 16.742187-2.828125v-26.414062zm0 0"/><path d="m337.246094 201.148438h-14.882813l-15.328125 50.148437h11.757813l3.570312-12.875h14.359375l3.871094 12.875h12.203125zm-13.246094 28.792968 2.976562-10.636718c.816407-2.90625 1.5625-6.699219 2.304688-9.671876h.152344c.742187 2.972657 1.636718 6.695313 2.527344 9.671876l3.125 10.636718zm0 0"/><path d="m396.976562 237.160156c-1.261718-4.613281-3.199218-7.960937-6.695312-9.375v-.222656c4.3125-1.5625 8.851562-5.953125 8.851562-12.351562 0-4.613282-1.636718-8.113282-4.609374-10.492188-3.574219-2.824219-8.78125-3.945312-16.222657-3.945312-6.027343 0-11.457031.449218-15.105469 1.046874v49.476563h11.234376v-19.714844h3.425781c4.609375.070313 6.769531 1.78125 8.109375 8.03125 1.484375 6.179688 2.679687 10.269531 3.496094 11.683594h11.605468c-.964844-1.9375-2.527344-8.484375-4.089844-14.136719zm-18.078124-13.765625h-4.464844v-13.839843c.820312-.148438 2.378906-.371094 5.132812-.371094 5.210938.074218 8.332032 2.378906 8.332032 6.996094 0 4.386718-3.347657 7.214843-9 7.214843zm0 0"/></g><path d="m412.949219 272.839844h33.5v130.339844h-33.5zm0 0" fill="#ce4e61"/><path d="m412.949219 49.199219h33.5v130.402343h-33.5zm0 0" fill="#ce4e61"/><path d="m412.949219 185.601562h33.5v81.238282h-33.5zm0 0" fill="#ccae8b"/><path d="m429.769531 10.421875c-9.160156-5.378906-20.960937-5.339844-30.078125.121094l-.960937.578125c-.21875.140625-.441407.261718-.660157.359375 9.21875 5.417969 14.878907 15.308593 14.878907 26v5.722656h33.5v-22.980469zm0 0" fill="#b9bc39"/><path d="m412.949219 409.179688v5.722656c0 10.691406-5.660157 20.582031-14.878907 26 .21875.097656.441407.238281.660157.359375l.960937.578125c9.117188 5.460937 20.917969 5.5 30.078125.121094l16.679688-9.800782v-22.980468zm0 0" fill="#b9bc39"/></svg>