<?xml version="1.0" encoding="iso-8859-1"?>
<!-- Generator: Adobe Illustrator 19.0.0, SVG Export Plug-In . SVG Version: 6.00 Build 0)  -->
<svg version="1.1" id="Capa_1" xmlns="http://www.w3.org/2000/svg" xmlns:xlink="http://www.w3.org/1999/xlink" x="0px" y="0px"
	 viewBox="0 0 402.771 402.771" style="enable-background:new 0 0 402.771 402.771;" xml:space="preserve">
<rect x="36.556" y="368.639" style="fill:#8C6B3B;" width="334.507" height="27.307"/>
<path d="M371.056,402.771H36.55c-3.773,0-6.827-3.057-6.827-6.827v-27.307c0-3.77,3.053-6.827,6.827-6.827h334.507
	c3.773,0,6.827,3.057,6.827,6.827v27.307C377.883,399.714,374.83,402.771,371.056,402.771z M43.376,389.118H364.23v-13.653H43.376
	V389.118z"/>
<path style="fill:#8C6B3B;" d="M210.63,368.638h-20.48c-58.44,0-105.813-47.374-105.813-105.813V157.011h232.107v105.813
	C316.443,321.264,269.069,368.638,210.63,368.638z"/>
<path d="M210.63,375.464h-20.48c-62.107,0-112.64-50.529-112.64-112.64V157.011c0-3.77,3.053-6.827,6.827-6.827h232.107
	c3.773,0,6.827,3.057,6.827,6.827v105.813C323.27,324.935,272.737,375.464,210.63,375.464z M91.163,163.838v98.987
	c0,54.579,44.407,98.987,98.987,98.987h20.48c54.579,0,98.987-44.407,98.987-98.987v-98.987L91.163,163.838L91.163,163.838z"/>
<path d="M84.336,252.584c-41.407,0-75.093-33.686-75.093-75.093v-20.48c0-3.77,3.053-6.827,6.827-6.827h68.267
	c3.773,0,6.827,3.057,6.827,6.827v88.747C91.163,249.528,88.11,252.584,84.336,252.584z M22.896,163.838v13.653
	c0,31.57,23.933,57.656,54.613,61.063v-74.716L22.896,163.838L22.896,163.838z"/>
<path d="M179.916,136.531c-0.546,0-1.106-0.063-1.661-0.203c-3.661-0.913-5.886-4.62-4.966-8.281
	c0.22-0.947,5.4-24.781-19.193-55.52c-8.293-10.37-11.414-21.313-9.281-32.524c4.446-23.289,30.594-38.473,31.706-39.107
	c3.246-1.857,7.421-0.744,9.306,2.533c1.874,3.267,0.741,7.436-2.526,9.313c-0.213,0.126-21.847,12.761-25.079,29.856
	c-1.36,7.2,0.78,14.199,6.54,21.4c29.08,36.354,22.081,66.109,21.767,67.36C185.757,134.461,182.977,136.531,179.916,136.531z"/>
<path d="M234.53,136.531c-0.546,0-1.106-0.063-1.661-0.203c-3.661-0.913-5.886-4.62-4.966-8.281c0.22-0.947,5.4-24.781-19.193-55.52
	c-8.293-10.37-11.414-21.313-9.281-32.524c4.446-23.289,30.594-38.473,31.706-39.107c3.253-1.857,7.421-0.744,9.306,2.533
	c1.874,3.267,0.741,7.436-2.526,9.313c-0.213,0.126-21.847,12.761-25.079,29.856c-1.36,7.2,0.78,14.199,6.54,21.4
	c29.08,36.354,22.081,66.109,21.767,67.36C240.37,134.461,237.59,136.531,234.53,136.531z"/>
<path d="M200.39,354.984c-56.467,0-102.4-45.937-102.4-102.4c0-3.77,3.053-6.827,6.827-6.827s6.827,3.057,6.827,6.827
	c0,48.937,39.813,88.747,88.747,88.747c3.773,0,6.827,3.057,6.827,6.827S204.163,354.984,200.39,354.984z"/>
<path style="fill:#84D839;" d="M340.126,216.743c26.317-26.909,46.578-145.097,46.578-145.097
	c-68.915-6.117-117.709,22.888-144.026,49.797s-25.837,70.057,1.073,96.374S313.81,243.652,340.126,216.743z"/>
<path d="M291.396,244.031c-18.927,0-37.854-7.093-52.42-21.337c-14.321-14.003-22.327-32.744-22.547-52.77
	c-0.22-20.023,7.366-38.939,21.373-53.257c17.606-18.01,67.407-59.107,149.507-51.823c1.893,0.171,3.64,1.123,4.799,2.633
	c1.167,1.514,1.647,3.441,1.319,5.32c-0.84,4.91-20.934,120.607-48.42,148.717l0,0C330.349,236.508,310.876,244.031,291.396,244.031
	z M368.269,77.644c-65.647,0-105.767,33.29-120.707,48.57c-11.453,11.709-17.661,27.18-17.48,43.559
	c0.181,16.379,6.733,31.706,18.441,43.16c24.18,23.644,63.094,23.211,86.726-0.966l0,0c18.959-19.393,36.593-97.34,43.394-134.05
	C375.116,77.735,371.657,77.644,368.269,77.644z M340.13,216.741h0.067H340.13z"/>
<path d="M244.683,268.409c-0.853,0-1.72-0.164-2.553-0.5c-3.5-1.41-5.187-5.39-3.78-8.887c5.42-13.413,9.347-29.03,13.146-44.133
	c3.946-15.689,8.026-31.916,13.827-45.884c18.64-44.884,78.1-76.059,80.62-77.367c3.374-1.737,7.473-0.416,9.201,2.924
	c1.734,3.347,0.427,7.467-2.92,9.201c-0.573,0.3-57.573,30.227-74.286,70.484c-5.42,13.034-9.201,28.063-13.199,43.974
	c-3.913,15.549-7.953,31.633-13.72,45.916C249.943,266.791,247.383,268.409,244.683,268.409z"/>
<path d="M262.85,203.038c-2.367,0-4.588-1.227-5.833-3.277l-17.76-29.181c-1.959-3.22-0.934-7.421,2.287-9.38
	c3.227-1.966,7.421-0.934,9.38,2.28l15.486,25.443l60.22-7.009c3.801-0.462,7.127,2.249,7.567,5.99
	c0.44,3.746-2.246,7.134-5.994,7.571l-64.567,7.516C263.376,203.025,263.11,203.038,262.85,203.038z"/>
<path d="M295.123,144.459c-3.014,0-5.68-1.983-6.547-4.883l-6.707-22.596c-1.073-3.616,0.986-7.417,4.606-8.487
	c3.633-1.091,7.414,0.986,8.487,4.599l5.221,17.597l35.746-0.814c0.053-0.003,0.106-0.003,0.154-0.003c3.7,0,6.74,2.953,6.827,6.67
	c0.087,3.77-2.9,6.897-6.673,6.98l-40.96,0.934C295.222,144.459,295.176,144.459,295.123,144.459z"/>
<path d="M274.944,173.491c-2.714,0-5.221-1.623-6.294-4.193l-12.527-29.967c-1.454-3.48,0.186-7.477,3.666-8.933
	c3.466-1.43,7.48,0.189,8.933,3.666l10.46,25.02l47.167-7.463c3.714-0.584,7.219,1.954,7.806,5.676
	c0.594,3.724-1.947,7.219-5.673,7.81l-52.466,8.3C275.657,173.465,275.302,173.491,274.944,173.491z"/>
<g>
</g>
<g>
</g>
<g>
</g>
<g>
</g>
<g>
</g>
<g>
</g>
<g>
</g>
<g>
</g>
<g>
</g>
<g>
</g>
<g>
</g>
<g>
</g>
<g>
</g>
<g>
</g>
<g>
</g>
</svg>
