<svg id="Layer_3" enable-background="new 0 0 64 64" height="512" viewBox="0 0 64 64" width="512" xmlns="http://www.w3.org/2000/svg"><g><path d="m59 56v-36h-54v36" fill="#d5cec2"/><path d="m5 32h30v16h-30z" fill="#c7e2fc"/><path d="m5 32v16h20.052c4.751-3.883 7.978-9.561 8.642-16z" fill="#ebf7fe"/><path d="m39 56v-28h16v28" fill="#fadfb2"/><g fill="#c16b3f"><path d="m39 28h16v4h-16z"/><path d="m5 48h30v8h-30z"/><path d="m5 28h30v4h-30z"/></g><path d="m2 16v-6c0-1.105.895-2 2-2h56c1.105 0 2 .895 2 2v6z" fill="#e39854"/><path d="m7 8v-2c0-1.105.895-2 2-2h12v4z" fill="#c16b3f"/><path d="m57 8v-2c0-1.105-.895-2-2-2h-12v4z" fill="#c16b3f"/><path d="m62 62h-60v-4c0-1.105.895-2 2-2h56c1.105 0 2 .895 2 2z" fill="#e39854"/><path d="m5 24c-1.657 0-3-1.343-3-3v-5h6v5c0 1.657-1.343 3-3 3z" fill="#c16b3f"/><path d="m11 24c-1.657 0-3-1.343-3-3v-5h6v5c0 1.657-1.343 3-3 3z" fill="#e7e4dd"/><path d="m17 24c-1.657 0-3-1.343-3-3v-5h6v5c0 1.657-1.343 3-3 3z" fill="#c16b3f"/><path d="m23 24c-1.657 0-3-1.343-3-3v-5h6v5c0 1.657-1.343 3-3 3z" fill="#e7e4dd"/><path d="m29 24c-1.657 0-3-1.343-3-3v-5h6v5c0 1.657-1.343 3-3 3z" fill="#c16b3f"/><path d="m35 24c-1.657 0-3-1.343-3-3v-5h6v5c0 1.657-1.343 3-3 3z" fill="#e7e4dd"/><path d="m41 24c-1.657 0-3-1.343-3-3v-5h6v5c0 1.657-1.343 3-3 3z" fill="#c16b3f"/><path d="m47 24c-1.657 0-3-1.343-3-3v-5h6v5c0 1.657-1.343 3-3 3z" fill="#e7e4dd"/><path d="m53 24c-1.657 0-3-1.343-3-3v-5h6v5c0 1.657-1.343 3-3 3z" fill="#c16b3f"/><path d="m59 24c-1.657 0-3-1.343-3-3v-5h6v5c0 1.657-1.343 3-3 3z" fill="#e7e4dd"/><path d="m42 12h-20c-.552 0-1-.448-1-1v-8c0-.552.448-1 1-1h20c.552 0 1 .448 1 1v8c0 .552-.448 1-1 1z" fill="#e7e4dd"/><g><path d="m8.55 39.498h9.899v2.001h-9.899z" fill="#c7e2fc" transform="matrix(.707 -.707 .707 .707 -24.68 21.401)"/></g><g><path d="m17.55 39.498h9.899v2.001h-9.899z" fill="#c7e2fc" transform="matrix(.707 -.707 .707 .707 -22.045 27.764)"/></g><path d="m37 9h-10c-1.105 0-2-.895-2-2 0-1.105.895-2 2-2h10c1.105 0 2 .895 2 2 0 1.105-.895 2-2 2z" fill="#c16b3f"/><g><path d="m43 43.998c-1.103 0-2-.896-2-1.999 0-1.104.897-2 2-2s2 .896 2 2c-.001 1.103-.898 1.999-2 1.999z" fill="#e39854"/></g><path d="m27 5c-1.105 0-2 .895-2 2s.895 2 2 2h6.262c1.152-1.065 2.006-2.442 2.431-4z" fill="#e39854"/><g><path d="m63 9.949c0-1.654-1.346-3-3-3h-2v-1c0-1.654-1.346-3-3-3h-11c0-1.104-.897-2-2-2h-20c-1.103 0-2 .896-2 2h-11c-1.654 0-3 1.346-3 3v1h-2c-1.654 0-3 1.346-3 3v5.999.001 4.999c0 1.859 1.279 3.411 3 3.858v30.142c-1.654 0-3 1.347-3 3v4.001c0 .552.448 1 1 1h60c.552 0 1-.448 1-1v-4.001c0-1.653-1.346-3-3-3h-.001v-30.141c1.721-.447 3-1.999 3-3.858v-4.999-.001h.001zm-8.001-5c.552 0 1 .448 1 1v1h-11.999v-2zm-32.999-2h20l.001 7.999h-20.001zm-14 3c0-.552.448-1 1-1h11v2h-12zm-4 3h16v1.999c0 1.104.897 2 2 2h20c1.103 0 2-.896 2-2v-1.999h16c.551 0 1 .448 1 1v5h-5s0 0 0 0h-6s0 0 0 0h-6s0 0 0 0h-6s0 0 0 0h-6s0 0 0 0h-6s0 0 0 0h-6s0 0 0 0h-6-6-5v-5c0-.552.448-1 1-1zm51 8v3.999c0 1.104-.897 2-2 2h-.001c-1.102 0-1.999-.896-1.999-2v-3.999zm-6 0v3.999c0 1.104-.897 2-2 2h-.001c-1.102 0-1.999-.896-1.999-2v-3.999zm-6 0v3.999c0 1.104-.897 2-2 2h-.001c-1.102 0-1.999-.896-1.999-2v-3.999zm-6 0v3.999c0 1.104-.897 2-2 2h-.001c-1.102 0-1.999-.896-1.999-2v-3.999zm-6 0v3.999c0 1.104-.897 2-2 2h-.001c-1.102 0-1.999-.896-1.999-2v-3.999zm-6 0v3.999c0 1.104-.897 2-2 2h-.001c-1.102 0-1.999-.896-1.999-2v-3.999zm-10 0h4v3.999c0 1.104-.897 2-2 2h-.001c-1.102 0-1.999-.896-1.999-2zm-6 0h4v3.999c0 1.104-.897 2-1.999 2-1.103 0-2-.896-2-2v-3.999zm-6 3.999v-3.999h4v3.999c0 1.104-.897 2-2 2h-.001c-1.102 0-1.999-.896-1.999-2zm2.999 12h28v14.001h-28zm28.001-1.999h-28v-2h28zm-28.001 17.999h28v6h-28zm55.001 9v3.001h-58v-3.001c0-.551.449-1 1-1h56c.551 0 1 .449 1 1zm-7-26.999h-14v-2h14zm-14 1.999h14v22h-14zm16 22v-26.999c0-.553-.447-1-1-1h-16c-.553 0-1 .447-1 1v26.999h-2v-26.999c0-.553-.447-1-1-1h-29v-2.143c.79-.205 1.479-.643 2.001-1.24.734.84 1.8 1.382 3 1.382s2.266-.542 3-1.382c.734.84 1.8 1.382 3 1.382s2.266-.542 3-1.382c.734.84 1.8 1.382 3 1.382s2.266-.542 3-1.382c.734.84 1.8 1.382 3 1.382s2.266-.542 3-1.382c.734.84 1.8 1.382 3 1.382s2.266-.542 3-1.382c.734.84 1.8 1.382 3 1.382s2.266-.542 3-1.382c.734.84 1.8 1.382 3 1.382s2.266-.542 3-1.382c.734.84 1.8 1.382 3 1.382s2.266-.542 3-1.382c.521.597 1.21 1.035 2 1.24v30.142zm5-34c0 1.104-.897 2-2 2h-.001c-1.102 0-1.999-.896-1.999-2v-3.999h4z"/><path d="m8.55 39.448h9.899v2.001h-9.899z" transform="matrix(.707 -.707 .707 .707 -24.644 21.386)"/><path d="m17.55 39.448h9.899v2.001h-9.899z" transform="matrix(.707 -.707 .707 .707 -22.012 27.757)"/><path d="m37 3.949h-10c-1.654 0-2.999 1.346-2.999 3 0 1.653 1.345 2.999 2.999 2.999h10c1.654 0 3-1.346 3-2.999 0-1.654-1.346-3-3-3zm0 3.999h-10c-.552 0-1-.448-1-.999 0-.552.448-1 .999-1h10c.552 0 1 .448 1 1 .001.551-.448.999-.999.999z"/><path d="m43 39.949c-1.103 0-2 .896-2 2 0 1.103.897 1.999 2 1.999s2-.896 2-1.999-.897-2-2-2z"/></g></g></svg>